<?xml version="1.0" encoding="iso-8859-1"?>
<!-- Generator: Adobe Illustrator 19.0.0, SVG Export Plug-In . SVG Version: 6.00 Build 0)  -->
<svg version="1.1" id="Layer_1" xmlns="http://www.w3.org/2000/svg" xmlns:xlink="http://www.w3.org/1999/xlink" x="0px" y="0px"
	 viewBox="0 0 512 512" style="enable-background:new 0 0 512 512;" xml:space="preserve">
<g>
	<g>
		<path style="fill:#fff;" d="M474.076,194.962c-3.946-2.081-6.598-7.441-6.598-13.332v-55.152c17.642-17.641,33.391-29.064,33.391-54.13
			c0-27.619-22.468-50.087-50.087-50.087c-27.819,0-19.25-1.489-239.304,218.565v81.957h59.696L434.087,159.87v21.761
			c0,18.511,9.37,34.941,24.446,42.88c5.522,2.902,8.946,8.57,8.946,14.793c0,9.206-7.49,16.696-16.696,16.696
			s-16.696-7.49-16.696-16.696c0-9.223-7.479-16.696-16.696-16.696s-16.696,7.473-16.696,16.696
			c0,27.619,22.468,50.087,50.087,50.087c27.619,0,50.087-22.468,50.087-50.087C500.87,220.647,490.608,203.653,474.076,194.962z
			 M450.783,89.044c-9.206,0-16.696-7.49-16.696-16.696s7.49-16.696,16.696-16.696s16.696,7.49,16.696,16.696
			S459.989,89.044,450.783,89.044z"/>
	</g>
</g>
<g>
	<g>
		<path style="fill:#fff;" d="M495.304,356.174h-0.158c-168.984,0-151.974,0-317.059,0V189.218c0-9.223-7.479-16.696-16.696-16.696H83.478
			C37.446,172.522,0,209.968,0,256v83.478h50.087c9.217,0,16.696,7.473,16.696,16.696c0,9.223-7.479,16.696-16.696,16.696H0v16.696
			c0,27.619,22.468,50.087,50.087,50.087h16.696c0,27.619,22.468,50.087,50.087,50.087c27.619,0,50.087-22.468,50.087-50.087h50.087
			c0,27.619,22.468,50.087,50.087,50.087c27.619,0,50.087-22.468,50.087-50.087h44.522c0,27.619,22.468,50.087,50.087,50.087
			c27.619,0,50.087-22.468,50.087-50.087c27.619,0,50.087-22.468,50.087-50.087V372.87C512,363.647,504.521,356.174,495.304,356.174
			z M33.391,306.087V256c0-27.619,22.468-50.087,50.087-50.087h27.826v100.174H33.391z M116.87,456.348
			c-9.206,0-16.696-7.49-16.696-16.696s7.49-16.696,16.696-16.696s16.696,7.49,16.696,16.696S126.076,456.348,116.87,456.348z
			 M267.13,456.348c-9.206,0-16.696-7.49-16.696-16.696s7.49-16.696,16.696-16.696s16.696,7.49,16.696,16.696
			S276.336,456.348,267.13,456.348z M411.826,456.348c-9.206,0-16.696-7.49-16.696-16.696s7.49-16.696,16.696-16.696
			c9.206,0,16.696,7.49,16.696,16.696S421.032,456.348,411.826,456.348z"/>
	</g>
</g>
<g>
</g>
<g>
</g>
<g>
</g>
<g>
</g>
<g>
</g>
<g>
</g>
<g>
</g>
<g>
</g>
<g>
</g>
<g>
</g>
<g>
</g>
<g>
</g>
<g>
</g>
<g>
</g>
<g>
</g>
</svg>
