<svg width="40" height="40" viewBox="0 0 40 40" fill="none" xmlns="http://www.w3.org/2000/svg">
<path d="M20.5626 0.228906C20.4165 0.0835938 20.2157 0 20.0103 0C19.8048 0 19.6032 0.0835156 19.4579 0.228906C19.3118 0.374219 19.229 0.575781 19.229 0.78125C19.229 0.986719 19.3118 1.18828 19.4579 1.33352C19.6032 1.47891 19.8048 1.5625 20.0103 1.5625C20.2157 1.5625 20.4165 1.47891 20.5626 1.33352C20.7078 1.18828 20.7915 0.986719 20.7915 0.78125C20.7915 0.575781 20.7079 0.374219 20.5626 0.228906Z" fill="#FFF3F3"/>
<path d="M39.7713 18.6665L31.7188 10.6099V5.78125C31.7188 4.91969 31.0178 4.21875 30.1562 4.21875H28.5938V0.78125C28.5938 0.349844 28.2439 0 27.8125 0H22.9427C22.5113 0 22.1615 0.349844 22.1615 0.78125C22.1615 1.21266 22.5113 1.5625 22.9427 1.5625H27.0312V4.21875H12.9688V1.5625H17.0833C17.5147 1.5625 17.8645 1.21266 17.8645 0.78125C17.8645 0.349844 17.5147 0 17.0833 0H12.1875C11.7561 0 11.4062 0.349844 11.4062 0.78125V4.21875H9.84375C8.98219 4.21875 8.28125 4.91969 8.28125 5.78125V34.2188H6.5625C6.13109 34.2188 5.78125 34.5686 5.78125 35V38.4375H1.5625V20.7812H6.5625C6.99391 20.7812 7.34375 20.4314 7.34375 20C7.34375 19.5686 6.99391 19.2188 6.5625 19.2188H0.78125C0.349844 19.2188 0 19.5686 0 20V39.2188C0 39.6502 0.349844 40 0.78125 40H39.2188C39.6502 40 40 39.6502 40 39.2188V19.2188C40 19.0116 39.9177 18.813 39.7713 18.6665ZM24.4271 5.78125H30.1562V11.7188H24.4271V5.78125ZM24.4271 13.2812H30.1562V19.2188H24.4271V13.2812ZM24.4271 20.7812H30.1562V26.7188H24.4271V20.7812ZM24.4271 28.2812H30.1562V34.2188H24.4271V28.2812ZM17.1354 5.78125H22.8646V11.7188H17.1354V5.78125ZM17.1354 13.2812H22.8646V19.2188H17.1354V13.2812ZM17.1354 20.7812H22.8646V26.7188H17.1354V20.7812ZM17.1354 28.2812H22.8646V34.2188H17.1354V28.2812ZM9.84375 5.78125H15.5729V11.7188H9.84375V5.78125ZM9.84375 13.2812H15.5729V19.2188H9.84375V13.2812ZM9.84375 20.7812H15.5729V26.7188H9.84375V20.7812ZM9.84375 28.2812H15.5729V34.2188H9.84375V28.2812ZM32.6562 38.4375H7.34375V35.7812H30.9375H32.6562V38.4375ZM38.4375 38.4375H34.2188V35C34.2188 34.5686 33.8689 34.2188 33.4375 34.2188H31.7188V32.0213H34.2061C34.6375 32.0213 34.9873 31.6715 34.9873 31.2401C34.9873 30.8087 34.6375 30.4588 34.2061 30.4588H31.7188V28.2746H34.2061C34.6375 28.2746 34.9873 27.9248 34.9873 27.4934C34.9873 27.062 34.6375 26.7121 34.2061 26.7121H31.7188V24.528H34.2061C34.6375 24.528 34.9873 24.1781 34.9873 23.7467C34.9873 23.3153 34.6375 22.9655 34.2061 22.9655H31.7188V20.7812H34.2061C34.6375 20.7812 34.9873 20.4314 34.9873 20C34.9873 19.5686 34.6375 19.2188 34.2061 19.2188H31.7188V12.8202L38.4375 19.5423V38.4375Z" fill="#FFF3F3"/>
<path d="M5.47414 31.2969C5.32891 31.1507 5.12734 31.068 4.92188 31.068C4.71641 31.068 4.51484 31.1508 4.36953 31.2969C4.22422 31.4422 4.14062 31.6437 4.14062 31.8492C4.14062 32.0547 4.22414 32.2562 4.36953 32.4016C4.51484 32.5468 4.71641 32.6305 4.92188 32.6305C5.12734 32.6305 5.32891 32.5469 5.47414 32.4016C5.61945 32.2562 5.70312 32.0547 5.70312 31.8492C5.70312 31.6437 5.61953 31.4422 5.47414 31.2969Z" fill="#FFF3F3"/>
<path d="M4.92188 22.5565C4.49047 22.5565 4.14062 22.9064 4.14062 23.3378V28.9062C4.14062 29.3376 4.49047 29.6875 4.92188 29.6875C5.35328 29.6875 5.70312 29.3376 5.70312 28.9062V23.3378C5.70312 22.9064 5.35328 22.5565 4.92188 22.5565Z" fill="#FFF3F3"/>
</svg>
